<?xml version="1.0" encoding="UTF-8" standalone="no"?>
<!DOCTYPE svg PUBLIC "-//W3C//DTD SVG 1.1//EN"
 "http://www.w3.org/Graphics/SVG/1.1/DTD/svg11.dtd">
<!-- Generated by graphviz version 2.42.3 ()
 -->
<!-- Title: %3 Pages: 1 -->
<svg width="882pt" height="404pt"
 viewBox="0.00 0.00 881.85 404.00" xmlns="http://www.w3.org/2000/svg" xmlns:xlink="http://www.w3.org/1999/xlink">
<g id="graph0" class="graph" transform="scale(1 1) rotate(0) translate(4 400)">
<title>%3</title>
<polygon fill="white" stroke="transparent" points="-4,4 -4,-400 877.85,-400 877.85,4 -4,4"/>
<!-- [root] aws_instance.web -->
<g id="node1" class="node">
<title>[root] aws_instance.web</title>
<polygon fill="none" stroke="black" points="589.85,-180 452.85,-180 452.85,-144 589.85,-144 589.85,-180"/>
<text text-anchor="middle" x="521.35" y="-158.3" font-family="Times,serif" font-size="14.00">aws_instance.web</text>
</g>
<!-- [root] aws_security_group.enable&#45;ssh&#45;access -->
<g id="node2" class="node">
<title>[root] aws_security_group.enable&#45;ssh&#45;access</title>
<polygon fill="none" stroke="black" points="335.85,-108 48.85,-108 48.85,-72 335.85,-72 335.85,-108"/>
<text text-anchor="middle" x="192.35" y="-86.3" font-family="Times,serif" font-size="14.00">aws_security_group.enable&#45;ssh&#45;access</text>
</g>
<!-- [root] aws_instance.web&#45;&gt;[root] aws_security_group.enable&#45;ssh&#45;access -->
<g id="edge1" class="edge">
<title>[root] aws_instance.web&#45;&gt;[root] aws_security_group.enable&#45;ssh&#45;access</title>
<path fill="none" stroke="black" d="M452.78,-146.41C403.32,-135.89 336.07,-121.58 282.3,-110.14"/>
<polygon fill="black" stroke="black" points="282.93,-106.69 272.42,-108.04 281.47,-113.54 282.93,-106.69"/>
</g>
<!-- [root] var.amis -->
<g id="node5" class="node">
<title>[root] var.amis</title>
<polygon fill="none" stroke="black" points="424.85,-108 353.85,-108 353.85,-72 430.85,-72 430.85,-102 424.85,-108"/>
<polyline fill="none" stroke="black" points="424.85,-108 424.85,-102 "/>
<polyline fill="none" stroke="black" points="430.85,-102 424.85,-102 "/>
<text text-anchor="middle" x="392.35" y="-86.3" font-family="Times,serif" font-size="14.00">var.amis</text>
</g>
<!-- [root] aws_instance.web&#45;&gt;[root] var.amis -->
<g id="edge2" class="edge">
<title>[root] aws_instance.web&#45;&gt;[root] var.amis</title>
<path fill="none" stroke="black" d="M489.79,-143.88C472.69,-134.6 451.37,-123.03 433.03,-113.08"/>
<polygon fill="black" stroke="black" points="434.49,-109.88 424.03,-108.19 431.15,-116.04 434.49,-109.88"/>
</g>
<!-- [root] var.count&#45;servers -->
<g id="node6" class="node">
<title>[root] var.count&#45;servers</title>
<polygon fill="none" stroke="black" points="587.35,-108 449.35,-108 449.35,-72 593.35,-72 593.35,-102 587.35,-108"/>
<polyline fill="none" stroke="black" points="587.35,-108 587.35,-102 "/>
<polyline fill="none" stroke="black" points="593.35,-102 587.35,-102 "/>
<text text-anchor="middle" x="521.35" y="-86.3" font-family="Times,serif" font-size="14.00">var.count&#45;servers</text>
</g>
<!-- [root] aws_instance.web&#45;&gt;[root] var.count&#45;servers -->
<g id="edge3" class="edge">
<title>[root] aws_instance.web&#45;&gt;[root] var.count&#45;servers</title>
<path fill="none" stroke="black" d="M521.35,-143.7C521.35,-135.98 521.35,-126.71 521.35,-118.11"/>
<polygon fill="black" stroke="black" points="524.85,-118.1 521.35,-108.1 517.85,-118.1 524.85,-118.1"/>
</g>
<!-- [root] var.key&#45;name -->
<g id="node8" class="node">
<title>[root] var.key&#45;name</title>
<polygon fill="none" stroke="black" points="712.85,-108 611.85,-108 611.85,-72 718.85,-72 718.85,-102 712.85,-108"/>
<polyline fill="none" stroke="black" points="712.85,-108 712.85,-102 "/>
<polyline fill="none" stroke="black" points="718.85,-102 712.85,-102 "/>
<text text-anchor="middle" x="665.35" y="-86.3" font-family="Times,serif" font-size="14.00">var.key&#45;name</text>
</g>
<!-- [root] aws_instance.web&#45;&gt;[root] var.key&#45;name -->
<g id="edge4" class="edge">
<title>[root] aws_instance.web&#45;&gt;[root] var.key&#45;name</title>
<path fill="none" stroke="black" d="M556.58,-143.88C575.93,-134.47 600.12,-122.71 620.78,-112.67"/>
<polygon fill="black" stroke="black" points="622.52,-115.71 629.99,-108.19 619.46,-109.41 622.52,-115.71"/>
</g>
<!-- [root] var.machine&#45;size -->
<g id="node9" class="node">
<title>[root] var.machine&#45;size</title>
<polygon fill="none" stroke="black" points="867.85,-108 736.85,-108 736.85,-72 873.85,-72 873.85,-102 867.85,-108"/>
<polyline fill="none" stroke="black" points="867.85,-108 867.85,-102 "/>
<polyline fill="none" stroke="black" points="873.85,-102 867.85,-102 "/>
<text text-anchor="middle" x="805.35" y="-86.3" font-family="Times,serif" font-size="14.00">var.machine&#45;size</text>
</g>
<!-- [root] aws_instance.web&#45;&gt;[root] var.machine&#45;size -->
<g id="edge5" class="edge">
<title>[root] aws_instance.web&#45;&gt;[root] var.machine&#45;size</title>
<path fill="none" stroke="black" d="M590.1,-144.05C631.37,-133.88 684.01,-120.91 726.91,-110.33"/>
<polygon fill="black" stroke="black" points="727.87,-113.7 736.74,-107.91 726.2,-106.91 727.87,-113.7"/>
</g>
<!-- [root] provider.aws -->
<g id="node4" class="node">
<title>[root] provider.aws</title>
<polygon fill="none" stroke="black" points="98.35,-36 0.15,-18 98.35,0 196.55,-18 98.35,-36"/>
<text text-anchor="middle" x="98.35" y="-14.3" font-family="Times,serif" font-size="14.00">provider.aws</text>
</g>
<!-- [root] aws_security_group.enable&#45;ssh&#45;access&#45;&gt;[root] provider.aws -->
<g id="edge6" class="edge">
<title>[root] aws_security_group.enable&#45;ssh&#45;access&#45;&gt;[root] provider.aws</title>
<path fill="none" stroke="black" d="M169.11,-71.7C155.79,-61.77 139,-49.27 125.12,-38.94"/>
<polygon fill="black" stroke="black" points="127.03,-35.99 116.91,-32.82 122.84,-41.6 127.03,-35.99"/>
</g>
<!-- [root] var.ingress&#45;ports -->
<g id="node7" class="node">
<title>[root] var.ingress&#45;ports</title>
<polygon fill="none" stroke="black" points="352.35,-36 214.35,-36 214.35,0 358.35,0 358.35,-30 352.35,-36"/>
<polyline fill="none" stroke="black" points="352.35,-36 352.35,-30 "/>
<polyline fill="none" stroke="black" points="358.35,-30 352.35,-30 "/>
<text text-anchor="middle" x="286.35" y="-14.3" font-family="Times,serif" font-size="14.00">var.ingress&#45;ports</text>
</g>
<!-- [root] aws_security_group.enable&#45;ssh&#45;access&#45;&gt;[root] var.ingress&#45;ports -->
<g id="edge7" class="edge">
<title>[root] aws_security_group.enable&#45;ssh&#45;access&#45;&gt;[root] var.ingress&#45;ports</title>
<path fill="none" stroke="black" d="M215.59,-71.7C227.54,-62.8 242.27,-51.82 255.2,-42.2"/>
<polygon fill="black" stroke="black" points="257.45,-44.88 263.38,-36.1 253.27,-39.27 257.45,-44.88"/>
</g>
<!-- [root] output.ip_address -->
<g id="node3" class="node">
<title>[root] output.ip_address</title>
<polygon fill="none" stroke="black" points="471.35,-252 333.35,-252 333.35,-216 477.35,-216 477.35,-246 471.35,-252"/>
<polyline fill="none" stroke="black" points="471.35,-252 471.35,-246 "/>
<polyline fill="none" stroke="black" points="477.35,-246 471.35,-246 "/>
<text text-anchor="middle" x="405.35" y="-230.3" font-family="Times,serif" font-size="14.00">output.ip_address</text>
</g>
<!-- [root] output.ip_address&#45;&gt;[root] aws_instance.web -->
<g id="edge9" class="edge">
<title>[root] output.ip_address&#45;&gt;[root] aws_instance.web</title>
<path fill="none" stroke="black" d="M433.73,-215.88C448.89,-206.72 467.75,-195.34 484.09,-185.48"/>
<polygon fill="black" stroke="black" points="486.11,-188.35 492.86,-180.19 482.49,-182.36 486.11,-188.35"/>
</g>
<!-- [root] meta.count&#45;boundary (EachMode fixup) -->
<g id="node10" class="node">
<title>[root] meta.count&#45;boundary (EachMode fixup)</title>
<ellipse fill="none" stroke="black" cx="397.35" cy="-306" rx="220.16" ry="18"/>
<text text-anchor="middle" x="397.35" y="-302.3" font-family="Times,serif" font-size="14.00">[root] meta.count&#45;boundary (EachMode fixup)</text>
</g>
<!-- [root] meta.count&#45;boundary (EachMode fixup)&#45;&gt;[root] output.ip_address -->
<g id="edge8" class="edge">
<title>[root] meta.count&#45;boundary (EachMode fixup)&#45;&gt;[root] output.ip_address</title>
<path fill="none" stroke="black" d="M399.33,-287.7C400.21,-279.98 401.27,-270.71 402.25,-262.11"/>
<polygon fill="black" stroke="black" points="405.74,-262.44 403.4,-252.1 398.78,-261.64 405.74,-262.44"/>
</g>
<!-- [root] provider.aws (close) -->
<g id="node11" class="node">
<title>[root] provider.aws (close)</title>
<ellipse fill="none" stroke="black" cx="641.35" cy="-234" rx="142.17" ry="18"/>
<text text-anchor="middle" x="641.35" y="-230.3" font-family="Times,serif" font-size="14.00">[root] provider.aws (close)</text>
</g>
<!-- [root] provider.aws (close)&#45;&gt;[root] aws_instance.web -->
<g id="edge10" class="edge">
<title>[root] provider.aws (close)&#45;&gt;[root] aws_instance.web</title>
<path fill="none" stroke="black" d="M612.61,-216.23C596.66,-206.93 576.64,-195.25 559.41,-185.2"/>
<polygon fill="black" stroke="black" points="561.09,-182.13 550.69,-180.12 557.57,-188.18 561.09,-182.13"/>
</g>
<!-- [root] root -->
<g id="node12" class="node">
<title>[root] root</title>
<ellipse fill="none" stroke="black" cx="521.35" cy="-378" rx="64.19" ry="18"/>
<text text-anchor="middle" x="521.35" y="-374.3" font-family="Times,serif" font-size="14.00">[root] root</text>
</g>
<!-- [root] root&#45;&gt;[root] meta.count&#45;boundary (EachMode fixup) -->
<g id="edge11" class="edge">
<title>[root] root&#45;&gt;[root] meta.count&#45;boundary (EachMode fixup)</title>
<path fill="none" stroke="black" d="M494.14,-361.64C477.23,-352.09 455.21,-339.67 436.45,-329.07"/>
<polygon fill="black" stroke="black" points="437.97,-325.91 427.54,-324.04 434.53,-332.01 437.97,-325.91"/>
</g>
<!-- [root] root&#45;&gt;[root] provider.aws (close) -->
<g id="edge12" class="edge">
<title>[root] root&#45;&gt;[root] provider.aws (close)</title>
<path fill="none" stroke="black" d="M565.92,-364.92C587.43,-356.82 611.69,-343.89 626.35,-324 639.39,-306.31 642.64,-281.29 642.92,-262.28"/>
<polygon fill="black" stroke="black" points="646.42,-262.11 642.8,-252.15 639.42,-262.19 646.42,-262.11"/>
</g>
</g>
</svg>
